<svg width="197" height="68" viewBox="0 0 197 68" fill="none" xmlns="http://www.w3.org/2000/svg">
<path fill-rule="evenodd" clip-rule="evenodd" d="M16.9336 10.4574C15.5875 10.4574 10.4723 10.336 9.68204 10.6049V22.684C9.68204 24.6784 9.89916 24.0454 7.87566 26.0831L0.0595703 34C0.389681 34.5183 0.806865 34.976 1.29278 35.3527L9.31729 43.3303C9.95126 44.0327 9.7081 46.7988 9.7081 47.9868V57.4038C10.5766 57.6553 19.0961 57.5512 21.1283 57.5512C24.6716 57.5512 23.3081 57.4385 27.6938 61.7308C28.8575 62.8754 32.3747 66.604 33.2953 67.1763C34.2246 66.6994 37.5681 62.9881 38.6102 61.9736L42.6399 58.0021C43.3173 57.3518 43.8818 57.5859 45.1323 57.5859L56.9086 57.5165V45.3767C56.9086 43.3823 56.7783 43.9373 58.715 41.9776L61.3724 39.2374C62.2409 38.3703 63.0485 37.5552 63.9778 36.6361C64.907 35.7169 65.845 34.9018 66.5571 34.0347L57.6468 24.9818C56.6133 23.976 56.9259 23.6465 56.9086 21.3486L56.8478 10.5008C54.0687 10.3274 47.9027 10.4314 44.6113 10.4401C42.5009 10.4401 42.8744 10.232 41.6933 9.11339L35.4491 2.89608C34.8556 2.08996 34.1304 1.38936 33.304 0.823639C31.8016 1.76014 24.3763 10.1626 23.3776 10.3621C22.5873 10.6222 18.08 10.4574 16.9336 10.4574Z" fill="#137EE1"/>
<path fill-rule="evenodd" clip-rule="evenodd" d="M20.9379 11.4893C19.0968 11.4893 11.5412 11.3592 10.6901 11.6454L10.6467 22.9181C10.6467 25.3981 10.2646 25.0599 9.00533 26.3259C7.89371 27.4445 1.85795 33.341 1.41504 34.0694L8.84032 41.6567C11.3328 44.1628 10.6467 42.7667 10.6641 48.8886V56.4847C14.0684 56.7101 17.273 56.6234 20.7381 56.6321C21.7108 56.6321 23.439 56.3633 24.0904 56.8575L33.2699 65.7716L41.3552 57.8894C42.3019 56.9442 42.2237 56.5454 43.9606 56.5627C46.3054 56.5627 54.6339 56.6841 55.9105 56.45C55.8411 53.8486 55.9105 51.2472 55.9105 48.6458C55.9105 47.3104 55.9105 45.9751 55.9105 44.6397C55.9105 42.784 56.4229 42.9054 57.3001 42.0383C58.7417 40.4948 59.9054 39.4369 61.1994 38.1102C62.5968 36.8315 63.9163 35.4706 65.1509 34.0347C63.9379 32.6316 62.6446 31.2998 61.2776 30.0459C59.9749 28.7799 58.6722 27.3665 57.2566 26.0658C55.3895 24.3315 55.9192 24.2621 55.9019 19.5536C55.9019 16.9522 55.9019 14.2468 55.9019 11.6107L44.803 11.472C41.9892 11.472 42.7448 11.4113 41.2163 9.98918C39.9483 8.80122 34.0081 2.73131 33.296 2.26306L25.1412 10.2407C23.5172 11.8275 23.9427 11.4373 20.9379 11.4893Z" fill="white"/>
<path fill-rule="evenodd" clip-rule="evenodd" d="M21.1028 12.9634H12.2185V20.8283C12.2185 22.0249 12.5572 24.8865 11.8016 25.6495C11.0461 26.4126 3.98553 33.2196 3.59473 33.974C4.18528 35.0405 11.4977 41.8388 12.0014 42.5932C12.5051 43.3476 12.2185 52.9988 12.2272 55.0192H23.7863C24.9153 55.0192 25.0369 55.5742 26.3917 56.8662L33.3393 63.6124C33.8951 63.309 39.8787 57.2824 40.8775 56.3112C41.6591 55.5481 41.6678 55.0105 43.1702 55.0105C45.1676 55.0105 53.5916 55.1146 54.4601 54.8805V43.9633C54.4601 42.229 54.7901 42.2984 55.6672 41.4573C56.8657 40.3127 62.6149 34.8931 63.0665 33.974C62.3451 33.0594 61.5301 32.2224 60.6348 31.4766L55.7715 26.6901C53.9651 25.1379 54.3993 24.6697 54.3906 21.4873V13.0588L43.4394 12.9548C41.963 12.9548 42.267 13.1022 41.4507 12.3478L36.101 7.04094C35.232 6.07218 34.2852 5.17605 33.2698 4.36151L25.4537 12.0096C24.1597 13.3103 24.2987 12.9634 21.1028 12.9634Z" fill="#137EE1"/>
<path fill-rule="evenodd" clip-rule="evenodd" d="M32.0624 27.8521C30.8899 26.3606 27.3293 18.3657 26.4087 17.5072C26.6953 19.5883 29.7349 27.5399 29.7262 28.7799L20.6856 21.47L28.0501 30.4795L16.7602 27.0977C17.0294 27.4532 16.9165 27.3665 17.3421 27.6006C19.5479 28.8233 26.0266 31.8755 27.1382 32.8034C25.2624 33.0202 23.3257 33.1849 21.4498 33.3497L18.6882 33.6011L15.8223 34.0347C15.8657 34.0347 15.9438 34.0347 15.9699 34.0867C15.996 34.1388 16.0828 34.0867 16.1262 34.1388L27.1295 35.2313L16.4128 40.9544L28.0154 37.4859L20.6856 46.5387C22.2749 45.6022 28.6059 39.9052 29.7783 39.2635L26.3479 50.5102C27.4248 49.643 30.9421 41.3619 32.071 40.2C32.6616 44.0934 32.5834 48.6025 33.3303 52.2791L34.468 40.1913C35.6751 41.7001 38.7408 48.5071 40.2432 50.8136L36.752 39.2375C37.4902 39.6277 42.6228 43.9547 43.6302 44.7958C44.364 45.4717 45.1543 46.0838 45.9924 46.6254C45.4434 45.8596 44.8458 45.1297 44.2033 44.4402L38.541 37.5032L50.1349 40.9717C48.0072 39.593 40.2258 35.8557 39.4182 35.1533L51.4115 34.0347L39.4442 32.8207L50.1609 27.0977L38.5584 30.5662C39.0658 29.7405 39.666 28.9753 40.3474 28.2856L45.9924 21.3486C44.3815 22.5154 42.8308 23.7628 41.3461 25.0859L37.9505 27.8521C37.4555 28.2683 37.1689 28.4504 36.8215 28.7192L40.2953 17.1864L34.5809 27.8694C34.1901 25.5455 33.9643 21.8949 33.7124 19.3369C33.6603 18.8513 33.6256 18.3743 33.5822 17.8888L33.3129 16.4406C32.6616 17.9321 32.4532 25.4588 32.0624 27.8521Z" fill="white"/>
<path fill-rule="evenodd" clip-rule="evenodd" d="M136.824 17.7934C135.46 17.97 134.145 18.4157 132.955 19.1046C131.766 19.7935 130.725 20.7118 129.894 21.806C129.063 22.9003 128.459 24.1486 128.116 25.4784C127.773 26.8082 127.698 28.1928 127.896 29.5516C128.169 31.6139 129.049 33.5488 130.425 35.1105C131.801 36.6722 133.611 37.7902 135.625 38.3225C137.639 38.8548 139.766 38.7773 141.736 38.0999C143.706 37.4226 145.43 36.1759 146.688 34.5182C147.947 32.8606 148.683 30.8668 148.805 28.7902C148.926 26.7135 148.426 24.6478 147.369 22.8553C146.312 21.0629 144.745 19.6247 142.867 18.7233C140.99 17.822 138.886 17.4983 136.824 17.7934ZM137.171 20.4641C138.158 20.3111 139.166 20.3566 140.135 20.5979C141.104 20.8392 142.015 21.2715 142.814 21.8693C143.613 22.4671 144.285 23.2184 144.789 24.079C145.294 24.9396 145.621 25.8922 145.752 26.8809C146.359 31.494 143.441 35.2313 139.603 35.795C129.407 37.3038 127.384 22.129 137.171 20.4641Z" fill="#137EE1"/>
<path fill-rule="evenodd" clip-rule="evenodd" d="M165.04 38.1622H168.176L170.39 32.3004H177.59C178.458 33.8092 179.083 37.0523 179.987 38.2143H182.957L179.188 28.1816C178.554 26.4907 177.902 24.8084 177.26 23.1089C176.688 21.4034 176.024 19.7303 175.271 18.0969H172.666L164.997 38.1796L165.04 38.1622ZM171.467 29.5516L174.072 21.9989L176.539 29.5603L171.467 29.5516Z" fill="#137EE1"/>
<path fill-rule="evenodd" clip-rule="evenodd" d="M93.3672 38.1796H96.4589L98.7429 32.2571H105.908L107.688 36.7748C108.339 38.5698 107.862 38.1969 111.301 38.1882L103.693 18.0795H101.036L93.3672 38.1709V38.1796ZM99.8024 29.5083L102.408 22.0076L104.883 29.5516L99.8024 29.5083Z" fill="#137EE1"/>
<path fill-rule="evenodd" clip-rule="evenodd" d="M75.9365 38.1796H78.8806V28.2683C79.6101 28.7105 86.0801 37.5813 86.4969 38.1276L90.1357 38.1883L84.2563 30.5662C83.5789 29.6991 82.9623 28.7712 82.3544 28.0775C82.806 27.3405 83.6397 26.4213 84.2303 25.6582C84.8208 24.8952 85.5851 23.924 86.2364 23.1609C86.8877 22.3978 89.9186 18.6258 90.0923 18.1142C85.6632 18.1142 87.1309 17.4812 84.7253 20.4901C84.0566 21.3573 83.4834 22.1117 82.8494 22.9528C81.6168 24.666 80.298 26.3157 78.8979 27.8954V18.1576L76.0321 18.1055L75.9365 38.1796Z" fill="#137EE1"/>
<path fill-rule="evenodd" clip-rule="evenodd" d="M114.487 38.1535L117.431 38.1709V29.5169L124.657 29.5083V26.8202H117.475L117.431 20.8023L124.596 20.7936L124.648 18.0968L114.531 18.0708L114.487 38.1535Z" fill="#137EE1"/>
<path fill-rule="evenodd" clip-rule="evenodd" d="M186.161 20.8023L190.026 20.7936V38.1275L192.996 38.1882V20.811L196.774 20.7936L196.817 18.0795L186.205 18.0708L186.161 20.8023Z" fill="#137EE1"/>
<path fill-rule="evenodd" clip-rule="evenodd" d="M151.961 38.1795H161.879V35.4914L154.896 35.5001L154.888 18.1229L152.022 18.0708L151.961 38.1795Z" fill="#137EE1"/>
<path fill-rule="evenodd" clip-rule="evenodd" d="M80.201 43.3216V45.4114H80.036C80.0042 45.0711 79.9038 44.7408 79.7407 44.4402C79.6011 44.1983 79.3965 44.0001 79.1502 43.8679C78.9057 43.7324 78.6309 43.6608 78.3512 43.6598C78.0661 43.651 77.7887 43.7536 77.5783 43.946C77.4852 44.0255 77.4099 44.1237 77.3575 44.2343C77.3052 44.3449 77.2768 44.4653 77.2743 44.5877C77.2731 44.7732 77.3413 44.9525 77.4654 45.0906C77.8546 45.4502 78.3006 45.7431 78.7854 45.9577C79.1879 46.167 79.5766 46.4016 79.9492 46.6601C80.15 46.8143 80.3158 47.0094 80.4355 47.2324C80.5411 47.4486 80.5974 47.6855 80.6005 47.9261C80.6013 48.1511 80.5536 48.3736 80.4607 48.5786C80.3678 48.7835 80.2318 48.9662 80.0621 49.1141C79.6875 49.4534 79.1954 49.6338 78.6899 49.617C78.5223 49.631 78.3538 49.631 78.1862 49.617C78.0994 49.617 77.9083 49.5476 77.613 49.4522C77.4369 49.3842 77.2532 49.3377 77.0659 49.3135C77.033 49.3107 76.9998 49.3147 76.9685 49.3251C76.9371 49.3355 76.9082 49.3522 76.8835 49.3742C76.8291 49.4605 76.7963 49.5587 76.788 49.6604H76.623V47.5792H76.788C76.8353 47.9213 76.941 48.2528 77.1006 48.5591C77.2497 48.7909 77.4601 48.977 77.7086 49.0967C77.9768 49.2366 78.2744 49.3109 78.577 49.3135C78.8945 49.3253 79.2047 49.2169 79.4455 49.01C79.5485 48.9266 79.6311 48.8207 79.6868 48.7004C79.7425 48.5802 79.7699 48.4488 79.7668 48.3163C79.7632 48.1584 79.7215 48.0037 79.6452 47.8654C79.5506 47.6951 79.4202 47.5472 79.2631 47.4318C78.9549 47.2271 78.636 47.039 78.3078 46.8682C77.9199 46.6659 77.5482 46.434 77.1962 46.1745C76.9919 46.019 76.8207 45.8244 76.6925 45.6022C76.5811 45.3912 76.5244 45.1557 76.5275 44.9172C76.5254 44.7042 76.5693 44.4932 76.6562 44.2987C76.7432 44.1042 76.871 43.9306 77.0312 43.7899C77.3779 43.4713 77.837 43.3029 78.3078 43.3216C78.6618 43.3294 79.0105 43.409 79.3326 43.5558C79.4428 43.616 79.5638 43.6542 79.6886 43.6685C79.7587 43.6695 79.8266 43.6448 79.8797 43.5991C79.9399 43.5175 79.9788 43.4221 79.9926 43.3216H80.201ZM85.4725 43.6251V43.4604H87.6089V43.6251H87.3831C87.2725 43.6199 87.1625 43.6445 87.0647 43.6964C86.9669 43.7483 86.8849 43.8255 86.8273 43.92C86.7493 44.1243 86.7196 44.3439 86.7405 44.5616V47.0416C86.7582 47.5196 86.6966 47.9972 86.5581 48.455C86.4234 48.8149 86.173 49.1198 85.846 49.3222C85.4133 49.5862 84.9107 49.7132 84.4043 49.6864C83.8805 49.7175 83.3589 49.5971 82.9019 49.3395C82.561 49.1211 82.304 48.7942 82.1724 48.4117C82.0494 47.9246 81.9996 47.4219 82.0248 46.9202V44.527C82.0567 44.2746 82.0049 44.0187 81.8771 43.7986C81.8112 43.7344 81.7318 43.6856 81.6447 43.6556C81.5576 43.6256 81.465 43.6152 81.3734 43.6251H81.1476V43.4604H83.753V43.6251H83.5185C83.4163 43.6156 83.3133 43.632 83.2191 43.673C83.1249 43.7139 83.0427 43.778 82.9801 43.8593C82.8908 44.0699 82.855 44.2992 82.8759 44.527V47.1717C82.877 47.4416 82.8973 47.7111 82.9367 47.9781C82.962 48.2294 83.0421 48.472 83.1711 48.6892C83.2967 48.8689 83.4674 49.0124 83.6661 49.1054C83.9089 49.2244 84.1775 49.2811 84.4478 49.2701C84.8203 49.2768 85.1883 49.1872 85.516 49.01C85.7988 48.8722 86.0234 48.6387 86.1499 48.351C86.2936 47.9093 86.3525 47.4445 86.3236 46.9809V44.527C86.3556 44.2831 86.3133 44.0353 86.202 43.8159C86.1343 43.7482 86.0525 43.6961 85.9626 43.6632C85.8726 43.6302 85.7765 43.6173 85.681 43.6251H85.4725ZM93.2886 43.3216L93.4449 45.2293H93.2799C93.1654 44.8305 92.9569 44.4648 92.672 44.1628C92.4863 43.9887 92.2679 43.8531 92.0294 43.7638C91.7909 43.6745 91.537 43.6333 91.2825 43.6425C90.9425 43.6242 90.6036 43.6945 90.2991 43.8465C89.9946 43.9986 89.7349 44.2271 89.5456 44.5096C89.199 45.059 89.0237 45.6989 89.0419 46.3479C89.0317 46.8949 89.1445 47.4371 89.3719 47.9348C89.5553 48.36 89.8566 48.7241 90.2403 48.984C90.5766 49.1939 90.9641 49.3079 91.3607 49.3135C91.8003 49.3141 92.232 49.1973 92.6112 48.9753V47.2411C92.6232 47.0391 92.5997 46.8366 92.5418 46.6427C92.4948 46.551 92.4183 46.4778 92.3246 46.4346C92.1617 46.3711 91.9867 46.3444 91.8122 46.3566V46.1745H94.1571V46.3393H94.0442C93.9506 46.3299 93.8563 46.3468 93.7719 46.3882C93.6874 46.4296 93.6163 46.4937 93.5665 46.5734C93.4964 46.7827 93.4669 47.0034 93.4797 47.2237V49.1227C93.1588 49.2992 92.8176 49.436 92.4636 49.5303C92.1001 49.6209 91.7265 49.6646 91.352 49.6604C90.8504 49.6918 90.3485 49.6063 89.8857 49.4107C89.423 49.215 89.0122 48.9146 88.6858 48.5331C88.2361 47.9826 87.9934 47.2924 87.9997 46.5821C88.0126 46.0051 88.1694 45.4404 88.456 44.9392C88.7426 44.438 89.15 44.0162 89.6411 43.7119C90.1201 43.4422 90.6634 43.3074 91.213 43.3216C91.414 43.3202 91.6146 43.3376 91.8122 43.3737C92.0726 43.4321 92.3281 43.5103 92.5765 43.6078C92.6845 43.655 92.7984 43.687 92.9152 43.7032C92.9441 43.7022 92.9724 43.6946 92.998 43.6811C93.0236 43.6676 93.0457 43.6485 93.0628 43.6251C93.1093 43.5307 93.1331 43.4268 93.1323 43.3216H93.2886ZM101.721 43.6251V43.4604H103.849V43.6251H103.623C103.514 43.6215 103.406 43.6469 103.31 43.6987C103.214 43.7505 103.133 43.8268 103.076 43.92C102.994 44.1232 102.961 44.3432 102.981 44.5616V47.0416C102.998 47.5196 102.937 47.9972 102.798 48.455C102.664 48.8149 102.413 49.1198 102.086 49.3222C101.657 49.587 101.157 49.7142 100.653 49.6864C100.127 49.7162 99.6025 49.5959 99.142 49.3395C98.8062 49.1177 98.5528 48.7916 98.4212 48.4117C98.2937 47.9254 98.2439 47.422 98.2735 46.9202V44.527C98.3036 44.2736 98.2486 44.0174 98.1172 43.7986C98.0526 43.7351 97.9747 43.6866 97.8891 43.6567C97.8035 43.6267 97.7124 43.6159 97.6222 43.6251H97.3964V43.4604H100.002V43.6251H99.776C99.6737 43.6147 99.5704 43.6308 99.4761 43.6718C99.3818 43.7128 99.2996 43.7774 99.2375 43.8593C99.1399 44.0675 99.1009 44.2983 99.1246 44.527V47.1717C99.1291 47.4418 99.1523 47.7112 99.1941 47.9781C99.2195 48.2294 99.2995 48.472 99.4286 48.6892C99.5529 48.8667 99.7202 49.0099 99.9149 49.1054C100.158 49.2224 100.427 49.2789 100.697 49.2701C101.069 49.2768 101.437 49.1872 101.765 49.01C102.05 48.8726 102.277 48.6393 102.407 48.351C102.547 47.9083 102.605 47.4443 102.581 46.9809V44.527C102.612 44.2822 102.566 44.034 102.451 43.8159C102.385 43.7484 102.305 43.6964 102.216 43.6634C102.127 43.6304 102.033 43.6174 101.938 43.6251H101.721ZM110.145 49.5216H108.521L106.463 46.6861H105.838V48.4204C105.806 48.6651 105.852 48.9137 105.968 49.1314C106.032 49.2002 106.11 49.2539 106.197 49.2884C106.284 49.323 106.378 49.3375 106.472 49.3308H106.715V49.4956H104.11V49.3308H104.335C104.441 49.3409 104.547 49.3229 104.643 49.2787C104.739 49.2346 104.822 49.1658 104.882 49.0794C104.97 48.8713 105.002 48.6446 104.978 48.4204V44.527C105.005 44.2832 104.963 44.0369 104.856 43.8159C104.789 43.7482 104.707 43.6961 104.617 43.6632C104.527 43.6302 104.431 43.6173 104.335 43.6251H104.11V43.4604H106.324C106.803 43.441 107.282 43.4877 107.748 43.5991C108.052 43.6929 108.32 43.8739 108.521 44.1194C108.73 44.3602 108.844 44.6682 108.843 44.9865C108.848 45.3446 108.718 45.6914 108.478 45.9577C108.169 46.2612 107.776 46.4638 107.349 46.5387L108.608 48.2729C108.805 48.5805 109.055 48.8506 109.346 49.0707C109.589 49.2159 109.863 49.302 110.145 49.3222V49.4869V49.5216ZM105.803 46.4H106.055C106.518 46.4318 106.977 46.2964 107.349 46.0184C107.488 45.9019 107.599 45.7557 107.674 45.5907C107.75 45.4256 107.787 45.2459 107.783 45.0646C107.793 44.8938 107.767 44.7227 107.706 44.5629C107.645 44.403 107.55 44.258 107.429 44.1374C107.307 44.0168 107.161 43.9234 107.001 43.8635C106.84 43.8036 106.669 43.7785 106.498 43.7899C106.264 43.797 106.032 43.8231 105.803 43.8679V46.3913V46.4ZM114.783 43.4604H109.815L109.755 44.8825H109.92C109.928 44.6519 109.996 44.4276 110.119 44.2321C110.216 44.0843 110.355 43.9693 110.519 43.9026C110.717 43.8517 110.922 43.8312 111.127 43.8419H111.847V48.4724C111.872 48.6938 111.839 48.9176 111.752 49.1227C111.686 49.2048 111.601 49.2692 111.504 49.31C111.407 49.3509 111.301 49.367 111.196 49.3569H110.979V49.5216H113.584V49.3569H113.376C113.279 49.366 113.181 49.3537 113.09 49.3207C112.998 49.2877 112.915 49.2349 112.846 49.1661C112.744 48.95 112.705 48.7096 112.733 48.4724V43.8419H113.602C113.811 43.8346 114.019 43.8762 114.21 43.9633C114.368 44.0496 114.495 44.1829 114.574 44.3449C114.652 44.5147 114.699 44.6966 114.713 44.8825H114.878L114.818 43.4604H114.783ZM118.535 47.5012H116.216L115.816 48.4464C115.732 48.6115 115.679 48.7909 115.66 48.9753C115.661 49.0232 115.673 49.0701 115.696 49.1123C115.719 49.1545 115.751 49.1908 115.79 49.2181C115.967 49.3106 116.164 49.3583 116.363 49.3569V49.5216H114.479V49.3569C114.653 49.3426 114.821 49.2828 114.965 49.1834C115.187 48.929 115.358 48.6347 115.469 48.3163L117.605 43.3303H117.762L119.872 48.3683C119.969 48.6605 120.126 48.9292 120.332 49.1574C120.498 49.2893 120.702 49.3625 120.914 49.3655V49.5303H118.517V49.3655C118.69 49.3701 118.861 49.3282 119.012 49.2441C119.05 49.2137 119.08 49.1753 119.101 49.1319C119.122 49.0884 119.133 49.0409 119.134 48.9927C119.11 48.7766 119.051 48.5658 118.96 48.3683L118.595 47.5012H118.535ZM118.396 47.1717L117.38 44.7264L116.329 47.1717H118.396ZM125.543 46.1745L127.784 48.3943C128.059 48.6921 128.378 48.9464 128.73 49.1487C128.97 49.2762 129.233 49.353 129.503 49.3742V49.539H126.637V49.3742C126.768 49.3834 126.898 49.3531 127.011 49.2875C127.046 49.2665 127.075 49.2374 127.096 49.2027C127.117 49.168 127.13 49.1286 127.132 49.0881C127.145 49.0251 127.145 48.9602 127.132 48.8973C127.05 48.7819 126.954 48.6771 126.846 48.5851L124.753 46.5127V48.4637C124.743 48.6679 124.763 48.8725 124.814 49.0707C124.855 49.1552 124.922 49.2248 125.005 49.2701C125.133 49.3391 125.276 49.3749 125.421 49.3742H125.63V49.539H123.024V49.3742H123.163C123.265 49.3821 123.367 49.3667 123.462 49.3292C123.557 49.2916 123.642 49.2328 123.711 49.1574C123.803 48.9385 123.839 48.7 123.815 48.4637V44.527C123.825 44.3203 123.807 44.1133 123.763 43.9113C123.719 43.8323 123.653 43.7686 123.572 43.7292C123.446 43.6616 123.306 43.6259 123.163 43.6251H122.946V43.4604H125.552V43.6251H125.343C125.199 43.6217 125.055 43.6545 124.926 43.7205C124.837 43.7657 124.769 43.8433 124.735 43.9373C124.686 44.1298 124.666 44.3285 124.675 44.527V46.3826L125.291 45.819C125.871 45.3236 126.408 44.7812 126.898 44.1974C126.968 44.1042 127.01 43.9929 127.019 43.8766C127.017 43.8425 127.007 43.8093 126.991 43.7793C126.974 43.7494 126.951 43.7234 126.924 43.7032C126.829 43.6412 126.715 43.6136 126.603 43.6251H126.464V43.4604H128.704V43.6251C128.581 43.6241 128.458 43.6417 128.339 43.6772C128.202 43.7261 128.071 43.7901 127.949 43.8679C127.744 44.0032 127.552 44.157 127.375 44.3275L126.464 45.1946L125.543 46.1745ZM132.769 43.339C133.152 43.3331 133.532 43.4072 133.885 43.5565C134.238 43.7058 134.556 43.9271 134.818 44.2061C135.104 44.5031 135.328 44.8538 135.477 45.2378C135.626 45.6218 135.697 46.0316 135.687 46.4433C135.7 46.8645 135.63 47.2842 135.481 47.6785C135.332 48.0728 135.107 48.4339 134.818 48.7412C134.546 49.0258 134.22 49.2524 133.858 49.4073C133.496 49.5621 133.106 49.6419 132.712 49.6419C132.318 49.6419 131.929 49.5621 131.567 49.4073C131.205 49.2524 130.878 49.0258 130.606 48.7412C130.317 48.4342 130.091 48.0731 129.942 47.6788C129.793 47.2844 129.724 46.8646 129.738 46.4433C129.723 46.003 129.803 45.5647 129.973 45.1579C130.142 44.7511 130.396 44.3852 130.719 44.0847C131.27 43.5657 132.002 43.2825 132.76 43.2956L132.769 43.339ZM132.682 43.6598C132.433 43.652 132.186 43.702 131.96 43.8058C131.734 43.9097 131.535 44.0645 131.379 44.2581C130.933 44.9027 130.719 45.679 130.771 46.4607C130.718 47.2732 130.942 48.0798 131.405 48.7499C131.557 48.9443 131.752 49.1004 131.976 49.2058C132.199 49.3112 132.444 49.363 132.69 49.3569C132.961 49.3626 133.229 49.3052 133.473 49.1893C133.717 49.0734 133.931 48.9021 134.097 48.6892C134.519 48.0745 134.715 47.3333 134.653 46.5907C134.716 45.77 134.502 44.9519 134.045 44.2668C133.882 44.0658 133.673 43.906 133.436 43.8006C133.199 43.6951 132.941 43.6469 132.682 43.6598ZM139.786 49.539L137.441 44.4402V48.4984C137.414 48.7365 137.456 48.9773 137.562 49.1921C137.631 49.261 137.714 49.3138 137.806 49.3467C137.897 49.3797 137.995 49.3921 138.092 49.3829H138.309V49.5476H136.19V49.3829H136.407C136.512 49.393 136.618 49.3769 136.715 49.3361C136.812 49.2952 136.897 49.2308 136.963 49.1487C137.054 48.9447 137.09 48.7205 137.067 48.4984V44.5096C137.08 44.3113 137.047 44.1127 136.972 43.9286C136.921 43.8316 136.838 43.7551 136.737 43.7119C136.564 43.6419 136.377 43.6122 136.19 43.6251V43.4604H137.927L140.116 48.1949L142.287 43.4604H144.024V43.6251H143.815C143.71 43.6148 143.604 43.6299 143.505 43.6691C143.407 43.7083 143.32 43.7706 143.251 43.8506C143.17 44.0603 143.137 44.2856 143.155 44.5096V48.4724C143.128 48.7105 143.171 48.9513 143.277 49.1661C143.347 49.2351 143.432 49.288 143.525 49.3209C143.618 49.3539 143.717 49.3661 143.815 49.3569H144.006V49.5216H141.401V49.3569H141.618C141.722 49.3679 141.827 49.3522 141.922 49.3112C142.018 49.2702 142.102 49.2053 142.165 49.1227C142.256 48.9187 142.292 48.6945 142.269 48.4724V44.4402L139.933 49.5476L139.786 49.539ZM146.065 46.6948V48.429C146.031 48.6729 146.074 48.921 146.186 49.1401C146.252 49.2086 146.332 49.262 146.42 49.2964C146.509 49.3309 146.604 49.3456 146.699 49.3395H146.933V49.5043H144.328V49.3395H144.562C144.667 49.3478 144.773 49.3291 144.869 49.285C144.964 49.241 145.047 49.1732 145.109 49.0881C145.188 48.8778 145.218 48.6524 145.196 48.429V44.527C145.224 44.2841 145.185 44.0381 145.083 43.8159C145.015 43.7492 144.933 43.6977 144.843 43.6648C144.753 43.6319 144.658 43.6184 144.562 43.6251H144.328V43.4604H146.551C146.986 43.4435 147.42 43.4992 147.836 43.6251C148.15 43.7357 148.426 43.9308 148.635 44.1888C148.851 44.4559 148.965 44.7908 148.957 45.1339C148.965 45.3585 148.925 45.5821 148.839 45.79C148.754 45.9978 148.625 46.1851 148.462 46.3393C148.274 46.5042 148.055 46.6304 147.818 46.7108C147.581 46.7911 147.33 46.824 147.081 46.8075C146.933 46.8075 146.777 46.8075 146.603 46.8075C146.422 46.7861 146.242 46.7543 146.065 46.7121V46.6948ZM146.065 46.4346C146.202 46.4676 146.341 46.4908 146.481 46.504H146.794C146.946 46.5039 147.095 46.4713 147.233 46.4085C147.371 46.3456 147.494 46.254 147.593 46.1398C147.708 46.0152 147.797 45.869 147.855 45.7097C147.914 45.5505 147.939 45.3813 147.932 45.212C147.935 44.9596 147.878 44.7101 147.767 44.4836C147.672 44.2732 147.514 44.0974 147.315 43.9807C147.111 43.8676 146.88 43.8108 146.646 43.8159C146.45 43.8204 146.254 43.8495 146.065 43.9026V46.4086V46.4346ZM152.63 47.5186L152.995 48.3857C153.086 48.5831 153.145 48.7939 153.169 49.01C153.168 49.0583 153.157 49.1058 153.136 49.1492C153.115 49.1927 153.084 49.231 153.047 49.2615C152.896 49.3456 152.725 49.3875 152.552 49.3829V49.5476H154.949V49.3829C154.737 49.3798 154.533 49.3066 154.367 49.1748C154.16 48.9466 154.003 48.6778 153.907 48.3857L151.822 43.3216H151.666L149.53 48.3076C149.419 48.626 149.248 48.9203 149.026 49.1748C148.879 49.2738 148.708 49.3335 148.531 49.3482V49.5129H150.45V49.3482C150.251 49.3496 150.054 49.302 149.877 49.2094C149.838 49.1821 149.805 49.1459 149.783 49.1037C149.76 49.0615 149.748 49.0145 149.747 48.9667C149.766 48.7822 149.819 48.6029 149.903 48.4377L150.303 47.4925L152.63 47.5186ZM152.491 47.189H150.424L151.475 44.7437L152.491 47.189ZM154.932 43.4777H156.564L160.281 48.0302V44.5616C160.311 44.3197 160.265 44.0745 160.151 43.8593C160.08 43.7934 159.997 43.7431 159.906 43.7118C159.814 43.6804 159.717 43.6686 159.621 43.6772H159.413V43.5124H161.54V43.6772H161.323C161.221 43.6667 161.117 43.6818 161.021 43.7212C160.926 43.7605 160.842 43.8228 160.776 43.9026C160.687 44.1101 160.651 44.3367 160.672 44.5616V49.643H160.507L156.503 44.7611V48.4984C156.476 48.7365 156.519 48.9773 156.625 49.1921C156.696 49.2602 156.781 49.3124 156.874 49.3453C156.967 49.3782 157.065 49.391 157.163 49.3829H157.381V49.5476H155.296V49.3829H155.513C155.618 49.393 155.724 49.3769 155.821 49.3361C155.918 49.2952 156.003 49.2308 156.069 49.1487C156.151 48.9423 156.184 48.7196 156.165 48.4984V44.2495C156.043 44.1033 155.909 43.967 155.765 43.8419C155.639 43.7664 155.505 43.7053 155.366 43.6598C155.236 43.6427 155.105 43.6427 154.975 43.6598V43.4951L154.932 43.4777ZM164.485 49.3742V49.539H161.879V49.3742H162.088C162.19 49.381 162.294 49.365 162.39 49.3276C162.486 49.2901 162.572 49.232 162.643 49.1574C162.736 48.9385 162.771 48.7 162.748 48.4637V44.527C162.761 44.3227 162.741 44.1175 162.687 43.92C162.654 43.8349 162.588 43.7663 162.504 43.7292C162.376 43.6602 162.233 43.6244 162.088 43.6251H161.879V43.4604H164.485V43.6251H164.267C164.167 43.6158 164.066 43.6307 163.972 43.6684C163.878 43.7061 163.795 43.7656 163.729 43.8419C163.628 44.0552 163.589 44.2926 163.616 44.527V48.4464C163.602 48.6507 163.622 48.8559 163.677 49.0534C163.713 49.139 163.777 49.2095 163.859 49.2528C163.985 49.3204 164.125 49.3561 164.267 49.3569L164.485 49.3742ZM169.079 43.4777H171.198V43.6425H171.085C170.967 43.6544 170.853 43.6866 170.746 43.7379C170.591 43.8102 170.452 43.9135 170.338 44.0414C170.165 44.2326 170.014 44.4419 169.886 44.6657L168.427 46.9462V48.4897C168.4 48.7278 168.443 48.9686 168.549 49.1834C168.621 49.2522 168.707 49.3048 168.802 49.3377C168.896 49.3706 168.996 49.383 169.096 49.3742H169.296V49.539H166.69V49.3742H166.916C167.02 49.3845 167.124 49.3684 167.22 49.3274C167.316 49.2865 167.399 49.222 167.463 49.1401C167.554 48.936 167.59 48.7119 167.568 48.4897V47.0416L165.9 44.4402C165.779 44.2467 165.646 44.0613 165.501 43.8853C165.37 43.7763 165.224 43.6885 165.066 43.6251C164.981 43.6038 164.891 43.6038 164.806 43.6251V43.4604H167.411V43.6251H167.281C167.144 43.6215 167.01 43.6545 166.89 43.7205C166.837 43.7491 166.793 43.7917 166.762 43.8437C166.731 43.8957 166.716 43.955 166.716 44.0154C166.76 44.2273 166.852 44.4263 166.986 44.5963L168.245 46.5474L169.443 44.683C169.585 44.501 169.677 44.2862 169.713 44.0587C169.713 43.9782 169.689 43.8995 169.643 43.8333C169.6 43.7638 169.536 43.7093 169.461 43.6772C169.344 43.6364 169.22 43.6187 169.096 43.6251V43.4604L169.079 43.4777ZM174.506 47.5186L174.863 48.3857C174.958 48.5815 175.017 48.7931 175.036 49.01C175.038 49.0586 175.027 49.1068 175.006 49.1505C174.985 49.1943 174.954 49.2323 174.915 49.2615C174.764 49.3456 174.593 49.3875 174.42 49.3829V49.5476H176.817V49.3829C176.605 49.3798 176.4 49.3066 176.235 49.1748C176.028 48.9466 175.871 48.6778 175.774 48.3857L173.664 43.3477H173.534L171.406 48.3336C171.289 48.6513 171.116 48.9451 170.894 49.2008C170.75 49.3002 170.582 49.36 170.407 49.3742V49.539H172.318V49.3742C172.121 49.3749 171.927 49.3273 171.753 49.2355C171.711 49.2102 171.677 49.1747 171.652 49.1322C171.628 49.0897 171.615 49.0416 171.615 48.9927C171.633 48.8082 171.686 48.6289 171.771 48.4637L172.179 47.5186H174.506ZM174.368 47.189H172.292L173.343 44.7437L174.402 47.1717L174.368 47.189ZM181.124 43.339V45.4288H180.959C180.928 45.095 180.83 44.7708 180.672 44.4749C180.532 44.2306 180.324 44.0319 180.073 43.9026C179.832 43.7675 179.56 43.6959 179.283 43.6945C179.142 43.6892 179.001 43.7117 178.868 43.7608C178.735 43.8099 178.614 43.8846 178.51 43.9807C178.417 44.0602 178.342 44.1584 178.289 44.269C178.237 44.3796 178.209 44.5 178.206 44.6223C178.205 44.8079 178.273 44.9872 178.397 45.1253C178.785 45.4869 179.231 45.7801 179.717 45.9924C180.118 46.2038 180.507 46.4383 180.881 46.6948C181.08 46.8487 181.243 47.044 181.359 47.2671C181.468 47.4818 181.525 47.7197 181.524 47.9608C181.526 48.1852 181.48 48.4075 181.388 48.6125C181.297 48.8175 181.162 49.0004 180.994 49.1487C180.615 49.4863 180.12 49.6636 179.613 49.643C179.448 49.6566 179.283 49.6566 179.118 49.643C178.924 49.5996 178.732 49.5446 178.545 49.4783C178.365 49.4108 178.179 49.3642 177.989 49.3395C177.957 49.3374 177.926 49.3417 177.896 49.3521C177.866 49.3626 177.839 49.3789 177.815 49.4002C177.757 49.4845 177.724 49.5838 177.72 49.6864H177.555V47.6053H177.72C177.767 47.9473 177.873 48.2788 178.032 48.5851C178.18 48.8149 178.387 49.0006 178.632 49.1227C178.9 49.2626 179.197 49.3369 179.5 49.3395C179.818 49.3514 180.128 49.2429 180.369 49.036C180.473 48.9535 180.557 48.8479 180.615 48.7276C180.672 48.6073 180.701 48.4755 180.699 48.3423C180.695 48.1844 180.653 48.0297 180.577 47.8914C180.48 47.723 180.35 47.5756 180.195 47.4579C180.073 47.3711 179.761 47.1804 179.24 46.8942C178.852 46.692 178.48 46.46 178.128 46.2005C177.921 46.0475 177.75 45.8525 177.624 45.6282C177.51 45.4178 177.451 45.1824 177.451 44.9432C177.451 44.7305 177.496 44.5203 177.582 44.3261C177.669 44.1319 177.796 43.9581 177.954 43.8159C178.302 43.4997 178.76 43.3317 179.231 43.3477C179.588 43.3542 179.94 43.4339 180.264 43.5818C180.372 43.6415 180.49 43.6798 180.612 43.6945C180.682 43.6972 180.751 43.6723 180.803 43.6251C180.87 43.5467 180.912 43.4501 180.924 43.3477L181.124 43.339ZM184.841 49.4089V49.5736H182.236V49.4089H182.453C182.555 49.4168 182.657 49.4014 182.752 49.3638C182.846 49.3263 182.931 49.2675 183 49.1921C183.092 48.9732 183.128 48.7347 183.104 48.4984V44.527C183.118 44.3227 183.097 44.1175 183.043 43.92C183.01 43.8349 182.945 43.7663 182.861 43.7292C182.736 43.6616 182.595 43.6259 182.453 43.6251H182.218V43.4604H184.824V43.6251H184.607C184.506 43.6158 184.405 43.6307 184.311 43.6684C184.217 43.7061 184.134 43.7656 184.068 43.8419C183.967 44.0552 183.928 44.2926 183.955 44.527V48.4464C183.945 48.6506 183.966 48.8551 184.016 49.0534C184.053 49.1413 184.121 49.2125 184.207 49.2528C184.329 49.3215 184.467 49.3573 184.607 49.3569L184.841 49.4089ZM191.042 47.5532H188.697L188.298 48.4464C188.213 48.6115 188.16 48.7909 188.141 48.9753C188.142 49.0243 188.155 49.0723 188.179 49.1148C188.203 49.1573 188.238 49.1929 188.28 49.2181C188.454 49.311 188.648 49.3587 188.845 49.3569V49.5216H186.934V49.3569C187.109 49.3426 187.276 49.2828 187.42 49.1834C187.642 48.929 187.813 48.6347 187.924 48.3163L190.034 43.3216H190.191L192.301 48.3597C192.398 48.6518 192.555 48.9206 192.761 49.1487C192.927 49.2806 193.132 49.3538 193.343 49.3569V49.5216H190.946V49.3569C191.119 49.3615 191.29 49.3195 191.441 49.2355C191.48 49.2063 191.512 49.1683 191.533 49.1245C191.554 49.0808 191.564 49.0326 191.563 48.984C191.539 48.7679 191.48 48.5571 191.389 48.3597L191.024 47.4925L191.042 47.5532ZM190.912 47.2237L189.887 44.7784L188.836 47.2237H190.912ZM194.385 43.6772V43.5124H196.991V43.6772H196.765C196.664 43.6679 196.563 43.6827 196.469 43.7204C196.376 43.7581 196.292 43.8176 196.227 43.894C196.134 44.1097 196.098 44.3455 196.122 44.579V47.5446C196.134 47.9208 196.082 48.2962 195.966 48.6545C195.867 48.9428 195.689 49.1979 195.454 49.3915C195.215 49.6032 194.905 49.7177 194.585 49.7124C194.347 49.7262 194.112 49.6521 193.925 49.5043C193.851 49.4482 193.791 49.3762 193.749 49.2936C193.707 49.211 193.684 49.12 193.682 49.0274C193.676 48.9676 193.684 48.9073 193.703 48.8505C193.722 48.7937 193.754 48.7417 193.795 48.6978C193.839 48.6528 193.892 48.6173 193.95 48.5934C194.008 48.5695 194.071 48.5579 194.134 48.5591C194.228 48.5571 194.32 48.5877 194.394 48.6458C194.514 48.7969 194.608 48.9668 194.672 49.1487C194.741 49.3048 194.828 49.3915 194.941 49.3915C195.054 49.3915 195.089 49.3395 195.167 49.2441C195.242 49.0784 195.275 48.8967 195.263 48.7152V44.527C195.273 44.3232 195.256 44.119 195.21 43.92C195.17 43.8366 195.103 43.7693 195.019 43.7292C194.894 43.6616 194.754 43.6259 194.611 43.6251L194.385 43.6772Z" fill="#137EE1"/>
<path fill-rule="evenodd" clip-rule="evenodd" d="M94.4521 42.9921L95.5551 42.9748L96.163 44.8911L94.4521 42.9921Z" fill="#137EE1"/>
</svg>
